<svg width="20" height="20" viewBox="0 0 20 20" fill="none" xmlns="http://www.w3.org/2000/svg">
<path d="M6.70389 4.90986C10.8142 0.829815 15.8005 -0.229092 17.796 2.55186C19.7915 5.33282 18.0377 10.9536 13.9274 15.0337C9.81717 19.1439 4.83079 20.2013 2.80512 17.3902C0.841384 14.5805 2.59515 8.98839 6.70389 4.90986Z" fill="#F06321"/>
<path d="M9.42441 2.73314C8.97124 3.06547 8.51807 3.45822 8.0649 3.88269C4.46824 7.44763 2.95615 12.3434 4.74014 14.792C6.58302 17.2391 10.9954 16.3328 14.6827 12.7361C16.6781 10.8026 18.0074 8.56545 18.5512 6.48086C18.7023 4.94008 18.4909 3.57905 17.796 2.55186C16.225 0.376646 12.8398 0.556415 9.42441 2.73314Z" fill="#AE282E"/>
<path d="M14.6224 3.1863V3.27694C14.5923 3.79053 14.2901 4.42496 13.7463 4.96877C12.9306 5.75426 11.843 6.05638 11.3883 5.60472C10.8747 5.12134 11.1783 4.06243 11.994 3.21651C12.84 2.40081 13.9275 2.1289 14.3807 2.61228C14.5318 2.76334 14.6224 2.94461 14.6224 3.1863ZM11.4804 17.0578C9.54539 18.508 7.55144 19.2346 5.61641 18.9325C6.43211 18.9627 7.09827 18.0548 7.64207 16.8464C8.18588 15.6077 8.48799 14.4597 8.75988 13.3705C9.15263 11.6485 9.18285 10.44 8.97137 10.1681C8.63904 9.74368 7.91397 9.83582 7.06654 10.3192C6.64358 10.5609 6.09978 10.4098 6.73573 9.62434C7.40038 8.83885 9.96835 6.96423 10.8747 6.66211C11.9034 6.39021 13.0514 6.78296 12.6587 7.90078C12.3853 8.71649 8.82032 18.0246 11.4804 17.0578Z" fill="white"/>
</svg>
