<svg width="20" height="20" viewBox="0 0 20 20" fill="none" xmlns="http://www.w3.org/2000/svg">
<path fill-rule="evenodd" clip-rule="evenodd" d="M1 9.74062C1 5.46591 5.02926 2 10.0002 2C14.9711 2 19 5.46591 19 9.74062C19 14.0153 14.9707 17.4812 10.0002 17.4812C5.0296 17.4812 1 14.0158 1 9.74062Z" fill="#003874"/>
<path fill-rule="evenodd" clip-rule="evenodd" d="M8.90729 4.48597L10.9983 3.79509L11.0086 15.0986L8.89991 15.8051L8.90729 4.48597Z" fill="#ED1C24"/>
<path fill-rule="evenodd" clip-rule="evenodd" d="M16.7686 10.5199C16.5724 12.1368 15.6654 13.7704 13.6849 13.7735C12.5287 13.7755 11.6255 12.9839 11 12.0153V10.8934C11.7827 11.282 12.5143 11.6991 13.4019 11.7118C14.4953 11.728 15.484 11.3076 15.8928 10.5197H16.7688L16.7686 10.5199ZM10.1481 11.5352C9.2396 12.6303 8.36162 13.7489 6.71655 13.7489C4.39296 13.7489 3.29081 11.5024 3.29081 9.62424C3.29081 7.81954 4.15214 5.68321 6.41583 5.68321C7.39765 5.68321 8.34274 6.28364 8.90609 6.91873L8.90437 8.45069C8.43372 8.13383 7.37946 7.82297 6.69115 7.81182C5.25566 7.78779 3.9901 8.41001 4.01207 9.82696C4.02701 10.8024 4.99355 11.4655 5.95512 11.4655C7.42786 11.4655 8.32008 10.1201 9.06572 9.099C9.36467 8.70921 9.6602 8.31681 9.95228 7.92184C10.7805 6.76459 11.7388 5.7081 13.3839 5.7081C15.3218 5.7081 16.4097 7.2701 16.7173 8.87809H15.8419C15.49 8.35663 14.8132 8.03753 14.1465 8.03753C12.624 8.03753 11.7142 9.43818 10.9528 10.4694L10.1461 11.535" fill="white"/>
</svg>
