<svg width="20" height="20" viewBox="0 0 20 20" fill="none" xmlns="http://www.w3.org/2000/svg">
<path d="M13.223 2H14.0351C14.1032 2.02088 14.1753 2.0117 14.2447 2.02388C15.1685 2.11372 16.0846 2.39113 16.8669 2.89804C17.1821 3.10175 17.4695 3.34706 17.7296 3.61704C17.9291 3.84274 18.12 4.07809 18.275 4.33715C18.3753 4.49057 18.4528 4.65696 18.535 4.8205C18.7729 5.33057 18.9151 5.88287 18.9712 6.44213C18.9867 6.53244 18.9796 6.62481 18.9957 6.71512C19.0043 6.82488 18.9968 6.93528 18.9992 7.04552C18.9962 7.17268 19.0084 7.30095 18.987 7.427C18.9742 7.75297 18.9242 8.07625 18.8635 8.39653C18.83 8.58743 18.771 8.77248 18.733 8.96243C18.3485 10.5018 17.9634 12.0412 17.5786 13.5806C17.5155 13.8658 17.4386 14.1478 17.37 14.4317C17.3225 14.6139 17.2765 14.8013 17.1709 14.9601C17.0934 15.0846 16.9917 15.1919 16.8798 15.2861C16.6127 15.4996 16.2684 15.5995 15.9296 15.6027C15.7855 15.5899 15.6403 15.5712 15.5032 15.5231C15.3599 15.4668 15.2157 15.3988 15.1114 15.2819C14.9602 15.1489 14.8783 14.9485 14.866 14.7499C14.8494 14.6253 14.884 14.5008 14.9148 14.3809C15.0974 13.6511 15.2796 12.9215 15.4622 12.1919C15.5418 11.8838 15.6104 11.5732 15.6897 11.2651C15.9552 10.2023 16.2214 9.13958 16.4867 8.07673C16.551 7.81639 16.591 7.55053 16.6099 7.28323C16.6051 7.07731 16.6216 6.87043 16.5948 6.66577C16.5675 6.40986 16.5097 6.1557 16.4095 5.91782C16.3217 5.68691 16.1865 5.47624 16.0237 5.29103C15.9777 5.22128 15.9029 5.18047 15.847 5.12006C15.8208 5.09348 15.7936 5.0677 15.7635 5.04572C15.5919 4.91508 15.4088 4.79582 15.2082 4.71469C15.0338 4.6288 14.8476 4.56855 14.6597 4.51999C14.3994 4.4455 14.131 4.39726 13.8604 4.38476C13.7395 4.36294 13.6167 4.37654 13.4949 4.37195C13.399 4.36736 13.3054 4.39283 13.2097 4.38998C12.7624 4.43268 12.3197 4.53233 11.8992 4.6908C11.6207 4.78776 11.357 4.92045 11.0976 5.05932C10.7889 5.24295 10.4892 5.44524 10.2246 5.68912C10.1331 5.78212 10.0397 5.87322 9.94809 5.96622C9.76984 6.17436 9.60203 6.39721 9.49622 6.65201C9.38203 7.02401 9.28555 7.40138 9.18069 7.77606C9.05337 8.26099 8.92257 8.7448 8.80079 9.23115C8.65385 9.78124 8.52037 10.335 8.36473 10.8828C8.29451 11.1126 8.22365 11.3425 8.15248 11.5719C8.1199 11.6977 8.09365 11.8271 8.03339 11.9433C7.84423 12.3578 7.43348 12.6542 6.98778 12.7319C6.68427 12.7909 6.35466 12.7501 6.09037 12.5837C6.0135 12.5244 5.92999 12.4695 5.87416 12.3884C5.75712 12.2516 5.69101 12.0773 5.66713 11.9001C5.66381 11.8166 5.63091 11.7303 5.66697 11.6493C6.02995 10.4598 6.31828 9.24934 6.63555 8.04715C6.81206 7.36927 6.98794 6.69108 7.18548 6.01889C7.22898 5.85424 7.30078 5.69877 7.37907 5.54804C7.59227 5.10108 7.8863 4.6965 8.21606 4.32861C8.34528 4.19971 8.47402 4.07018 8.60356 3.94143C8.80917 3.76651 9.01225 3.58731 9.23557 3.43468C9.34739 3.34263 9.47566 3.27478 9.59428 3.19222C10.0683 2.89172 10.5768 2.64751 11.1044 2.45661C11.2347 2.41328 11.3616 2.35871 11.4951 2.32471C11.7755 2.24183 12.0588 2.16718 12.3469 2.11657C12.5698 2.06991 12.7967 2.04935 13.0223 2.0185C13.089 2.01091 13.158 2.02151 13.223 2Z" fill="#00579C"/>
<path d="M3.78554 4.31296C3.86447 4.31027 3.94212 4.29161 4.0212 4.29272C4.22745 4.31154 4.43701 4.3419 4.62586 4.43221C4.75492 4.50165 4.88398 4.58405 4.96353 4.71105C5.07757 4.85561 5.08547 5.05347 5.04941 5.22698C4.94756 5.62175 4.85519 6.01921 4.74827 6.41271C4.62965 6.88941 4.51008 7.3658 4.39114 7.84234C4.30257 8.205 4.20293 8.56466 4.11578 8.92749C4.01282 9.34092 3.90843 9.75404 3.80595 10.1676C3.71722 10.4941 3.63861 10.8232 3.55605 11.1514C3.46258 11.5041 3.38919 11.865 3.38397 12.231C3.36657 12.3262 3.37069 12.4229 3.38492 12.5182C3.39077 12.901 3.47681 13.2822 3.63608 13.6303C3.71342 13.7709 3.7895 13.9135 3.89246 14.0378C3.97186 14.1269 4.04398 14.2237 4.1384 14.298C4.24295 14.3785 4.34053 14.4695 4.45694 14.5335C4.57872 14.611 4.70842 14.6746 4.8389 14.7361C5.13292 14.8517 5.43738 14.9421 5.7488 14.9961C6.03903 15.0377 6.33321 15.0662 6.62629 15.0428C7.36079 14.9985 8.08248 14.7877 8.73411 14.4473C9.12049 14.2515 9.47478 13.9958 9.79806 13.7084C9.98105 13.5314 10.1565 13.3448 10.2971 13.1316C10.3828 13.0013 10.4748 12.87 10.5145 12.7169C10.9004 11.3836 11.2274 10.0343 11.5848 8.69341C11.6584 8.4288 11.7469 8.16878 11.8244 7.90529C11.8981 7.66203 12.013 7.42732 12.1831 7.23674C12.2736 7.11543 12.3981 7.02559 12.5237 6.94398C12.7935 6.77095 13.1237 6.70516 13.4408 6.73552C13.5928 6.75387 13.745 6.79104 13.8799 6.86553C14.0482 6.94414 14.1951 7.0743 14.2812 7.2399C14.3659 7.39601 14.3677 7.58422 14.3303 7.75393C14.0895 8.55596 13.8755 9.36575 13.6689 10.1771C13.3839 11.2689 13.1098 12.3637 12.7955 13.4477C12.7685 13.5458 12.7277 13.6394 12.6844 13.7313C12.6094 13.9119 12.5113 14.0817 12.4104 14.2488C12.2312 14.5414 12.0267 14.8192 11.7923 15.07C11.6968 15.1899 11.5791 15.2894 11.4743 15.4007C11.2644 15.5926 11.0475 15.7779 10.8173 15.9454C10.4552 16.213 10.0646 16.4398 9.6622 16.6406C9.47557 16.7239 9.29147 16.8133 9.10009 16.8854C8.93355 16.9575 8.75846 17.0064 8.58828 17.0685C8.3251 17.1539 8.05638 17.2193 7.78672 17.2797C7.68407 17.2998 7.58032 17.3127 7.47814 17.3347C7.32093 17.3629 7.1615 17.3746 7.00382 17.3989C6.923 17.4133 6.83901 17.3953 6.76009 17.4208H5.94777C5.91756 17.4124 5.88688 17.4065 5.85572 17.4059C5.73947 17.4038 5.6256 17.3763 5.50966 17.3698C5.15886 17.3224 4.81059 17.2515 4.47355 17.1422C4.09396 17.0325 3.73224 16.8682 3.38508 16.6807C3.13487 16.5374 2.89889 16.3706 2.67509 16.1888C2.60597 16.1261 2.53006 16.0707 2.46679 16.0014C2.36667 15.8961 2.25517 15.8012 2.1647 15.6868C1.55989 15.0001 1.18015 14.1269 1.05441 13.2225C1.02942 13.0792 1.02515 12.9331 1 12.7901V11.961C1.01487 11.9058 1.01344 11.8486 1.0193 11.7924C1.06168 11.3858 1.12242 10.979 1.23376 10.5849C1.406 9.9073 1.56859 9.22704 1.74684 8.55106C1.88238 8.00683 2.01856 7.46275 2.1549 6.91867C2.28301 6.44087 2.39609 5.95895 2.51851 5.47956C2.55078 5.3611 2.56912 5.23741 2.62353 5.12623C2.68537 4.99922 2.75148 4.87016 2.8546 4.77131C2.90553 4.72228 2.95298 4.66977 3.00644 4.62359C3.22644 4.4436 3.50481 4.34317 3.78554 4.31296Z" fill="#DA251C"/>
</svg>
