<svg width="20" height="20" viewBox="0 0 20 20" fill="none" xmlns="http://www.w3.org/2000/svg">
<path fill-rule="evenodd" clip-rule="evenodd" d="M14.5579 1H19V18.2683H14.5579V14.0196C10.6685 15.4699 7.02524 15.6028 3.66322 12.2749C2.26897 10.8081 1.49879 8.81835 1.8295 5.33108C1.86905 4.81689 1.62955 2.65464 1 1.27797H4.94545C6.78027 4.24226 4.3741 7.70976 7.20325 10.1258C11.0443 12.6506 14.4019 9.64347 14.5579 6.90552V1ZM10.1455 2.8601C12.2419 2.8601 13.9526 4.56748 13.9526 6.6616C13.9526 8.75462 12.2419 10.462 10.1455 10.462C8.04813 10.462 6.33749 8.75462 6.33749 6.6616C6.33749 4.56748 8.04813 2.8601 10.1455 2.8601Z" fill="#FBBC09"/>
</svg>
