<svg width="20" height="20" viewBox="0 0 20 20" fill="none" xmlns="http://www.w3.org/2000/svg">
<path d="M10.0056 2C10.9239 3.57746 11.8501 5.15027 12.7584 6.73369C11.2902 9.32347 9.84329 11.9258 8.32546 14.4871C7.74311 15.4703 7.17665 16.4628 6.60093 17.4493C4.73395 17.4605 2.86698 17.4599 1 17.4572C1.05698 17.3293 1.11329 17.2008 1.18219 17.0789C4.12178 12.0517 7.07264 7.03116 10.0056 2Z" fill="#AE285D"/>
<path d="M10.0063 11.6171C11.8799 11.6165 13.7535 11.6032 15.6271 11.6343C16.7428 13.5795 17.8943 15.5035 19 17.4539C17.1264 17.4632 15.2535 17.4559 13.3799 17.4546C12.2648 15.5028 11.1001 13.5808 10.0063 11.6171Z" fill="#AE285D"/>
</svg>
