<svg width="28" height="28" viewBox="0 0 28 28" fill="none" xmlns="http://www.w3.org/2000/svg">
<path d="M24.2072 14L25.4952 11.774C25.65 11.5062 25.6921 11.1878 25.6122 10.889C25.5324 10.5901 25.3371 10.3352 25.0693 10.1803L22.841 8.89232V6.32565C22.841 6.01623 22.7181 5.71949 22.4993 5.50069C22.2805 5.2819 21.9837 5.15899 21.6743 5.15899H19.1088L17.822 2.93182C17.6666 2.66455 17.4122 2.46924 17.1138 2.38815C16.9658 2.34804 16.8114 2.33769 16.6594 2.35772C16.5074 2.37775 16.3609 2.42775 16.2283 2.50482L14 3.79282L11.7717 2.50365C11.5037 2.34895 11.1853 2.30703 10.8864 2.3871C10.5875 2.46718 10.3327 2.6627 10.178 2.93065L8.88999 5.15899H6.32449C6.01507 5.15899 5.71833 5.2819 5.49953 5.50069C5.28074 5.71949 5.15783 6.01623 5.15783 6.32565V8.89115L2.92949 10.1792C2.79653 10.2556 2.67999 10.3576 2.58657 10.4793C2.49315 10.6009 2.42468 10.7399 2.38511 10.8881C2.34554 11.0363 2.33565 11.1908 2.35599 11.3429C2.37633 11.4949 2.42652 11.6414 2.50366 11.774L3.79166 14L2.50366 16.226C2.34965 16.4941 2.30786 16.8121 2.38741 17.1109C2.46696 17.4096 2.6614 17.6648 2.92833 17.8208L5.15666 19.1088V21.6743C5.15666 21.9837 5.27957 22.2805 5.49837 22.4993C5.71716 22.7181 6.01391 22.841 6.32333 22.841H8.88999L10.178 25.0693C10.2813 25.2459 10.4288 25.3925 10.6059 25.4948C10.783 25.5971 10.9838 25.6515 11.1883 25.6527C11.3913 25.6527 11.5932 25.599 11.7728 25.4952L13.9988 24.2072L16.2272 25.4952C16.495 25.6496 16.8133 25.6916 17.112 25.6117C17.4108 25.5319 17.6657 25.3368 17.8208 25.0693L19.1077 22.841H21.6732C21.9826 22.841 22.2793 22.7181 22.4981 22.4993C22.7169 22.2805 22.8398 21.9837 22.8398 21.6743V19.1088L25.0682 17.8208C25.2009 17.7441 25.3172 17.642 25.4105 17.5203C25.5037 17.3986 25.5721 17.2598 25.6116 17.1117C25.6511 16.9635 25.6611 16.8091 25.6409 16.6571C25.6208 16.5051 25.5708 16.3586 25.494 16.226L24.2072 14ZM11.0822 8.15499C11.5464 8.15514 11.9916 8.33972 12.3198 8.66813C12.648 8.99654 12.8323 9.44187 12.8322 9.90615C12.832 10.3704 12.6474 10.8156 12.319 11.1438C11.9906 11.472 11.5453 11.6563 11.081 11.6562C10.6167 11.656 10.1715 11.4714 9.84331 11.143C9.51512 10.8146 9.33084 10.3693 9.33099 9.90499C9.33115 9.4407 9.51573 8.9955 9.84414 8.66731C10.1725 8.33912 10.6179 8.15483 11.0822 8.15499ZM11.4322 19.355L9.56549 17.9562L16.5655 8.62282L18.4322 10.0217L11.4322 19.355ZM16.9155 19.8217C16.6856 19.8216 16.458 19.7762 16.2456 19.6882C16.0333 19.6001 15.8403 19.4711 15.6778 19.3085C15.5153 19.1459 15.3864 18.9529 15.2985 18.7404C15.2106 18.528 15.1654 18.3004 15.1655 18.0705C15.1656 17.8406 15.2109 17.613 15.299 17.4006C15.387 17.1882 15.516 16.9953 15.6786 16.8328C15.8412 16.6703 16.0343 16.5414 16.2467 16.4535C16.4591 16.3656 16.6868 16.3204 16.9167 16.3205C17.3809 16.3206 17.8261 16.5052 18.1543 16.8336C18.4825 17.162 18.6668 17.6074 18.6667 18.0717C18.6665 18.5359 18.4819 18.9811 18.1535 19.3093C17.8251 19.6375 17.3798 19.8218 16.9155 19.8217Z" fill="#0F411E"/>
</svg>
