<svg width="86" height="85" viewBox="0 0 86 85" fill="none" xmlns="http://www.w3.org/2000/svg">
<circle cx="43.3372" cy="42.5001" r="42.5" fill="#D9EAF4"/>
<path d="M48.2904 27.3773C50.7285 28.0316 52.9516 29.3157 54.7366 31.1007C56.5216 32.8857 57.8057 35.1088 58.4601 37.5469M46.7991 32.9293C48.2655 33.3187 49.6028 34.0889 50.6757 35.1617C51.7485 36.2345 52.5186 37.5719 52.9081 39.0382M36.2701 42.6138C37.7492 45.6683 40.2192 48.1319 43.2775 49.6032C43.5031 49.71 43.7526 49.7562 44.0015 49.7373C44.2504 49.7184 44.49 49.635 44.6969 49.4953L49.1888 46.4948C49.3873 46.3602 49.6166 46.278 49.8554 46.256C50.0942 46.234 50.3346 46.2729 50.5543 46.369L58.9631 49.9805C59.2505 50.1001 59.4906 50.3109 59.6465 50.5803C59.8023 50.8498 59.8652 51.163 59.8256 51.4718C59.5591 53.552 58.5437 55.4637 56.9695 56.8494C55.3954 58.2351 53.3702 58.9997 51.273 59.0002C44.7922 59.0002 38.5769 56.4257 33.9943 51.8431C29.4116 47.2605 26.8372 41.0451 26.8372 34.5643C26.8376 32.4671 27.6022 30.442 28.9879 28.8678C30.3736 27.2936 32.2854 26.2783 34.3656 26.0118C34.6743 25.9721 34.9875 26.035 35.257 26.1909C35.5265 26.3467 35.7373 26.5868 35.8569 26.8742L39.4683 35.301C39.5623 35.5172 39.6016 35.7532 39.5828 35.9882C39.564 36.2232 39.4876 36.45 39.3605 36.6485L36.36 41.2123C36.2264 41.4187 36.148 41.656 36.1322 41.9013C36.1165 42.1467 36.164 42.392 36.2701 42.6138Z" stroke="#0075B8" stroke-width="2" stroke-linecap="round" stroke-linejoin="round"/>
</svg>
