<svg width="38" height="24" viewBox="0 0 38 24" fill="none" xmlns="http://www.w3.org/2000/svg">
<rect x="0.833008" y="0.5" width="36.3333" height="23" rx="1.5" fill="white"/>
<rect x="0.833008" y="0.5" width="36.3333" height="23" rx="1.5" stroke="#E7ECFF"/>
<path d="M22.1729 6.77302H16.2812V17.3605H22.1729V6.77302Z" fill="#7375CF"/>
<path d="M16.6556 12.0667C16.6547 11.047 16.8857 10.0405 17.3313 9.12337C17.7769 8.20622 18.4252 7.40245 19.2273 6.77292C18.234 5.99216 17.0411 5.50662 15.7849 5.37179C14.5287 5.23696 13.2599 5.45828 12.1235 6.01046C10.9872 6.56265 10.0291 7.4234 9.35877 8.49435C8.68847 9.56531 8.33301 10.8032 8.33301 12.0667C8.33301 13.3301 8.68847 14.568 9.35877 15.639C10.0291 16.7099 10.9872 17.5707 12.1235 18.1229C13.2599 18.6751 14.5287 18.8964 15.7849 18.7615C17.0411 18.6267 18.234 18.1412 19.2273 17.3604C18.4252 16.7309 17.7769 15.9271 17.3313 15.01C16.8857 14.0928 16.6547 13.0863 16.6556 12.0667Z" fill="#EB001B"/>
<path d="M29.4789 16.2391V16.0224H29.5663V15.9782H29.3438V16.0224H29.4312V16.2391H29.4789ZM29.9111 16.2391V15.9778H29.8429L29.7644 16.1576L29.6859 15.9778H29.6176V16.2391H29.6658V16.042L29.7394 16.212H29.7893L29.8629 16.0416V16.2391H29.9111Z" fill="#00A2E5"/>
<path d="M30.1215 12.0667C30.1216 13.3301 29.7662 14.568 29.0959 15.639C28.4256 16.7099 27.4676 17.5707 26.3312 18.1229C25.1949 18.675 23.9261 18.8964 22.6699 18.7615C21.4137 18.6267 20.2208 18.1412 19.2275 17.3604C20.0289 16.7302 20.6768 15.9264 21.1223 15.0093C21.5678 14.0923 21.7993 13.0862 21.7993 12.0667C21.7993 11.0472 21.5678 10.041 21.1223 9.12399C20.6768 8.20698 20.0289 7.40308 19.2275 6.77292C20.2208 5.99216 21.4137 5.50662 22.6699 5.37179C23.9261 5.23696 25.1949 5.45829 26.3312 6.01048C27.4676 6.56266 28.4256 7.42342 29.0959 8.49438C29.7662 9.56533 30.1216 10.8033 30.1215 12.0667Z" fill="#00A2E5"/>
</svg>
