<svg width="38" height="24" viewBox="0 0 38 24" fill="none" xmlns="http://www.w3.org/2000/svg">
<rect x="0.5" y="0.5" width="36.3333" height="23" rx="1.5" fill="white"/>
<rect x="0.5" y="0.5" width="36.3333" height="23" rx="1.5" stroke="#E7ECFF"/>
<path fill-rule="evenodd" clip-rule="evenodd" d="M36.9741 17.8V20.408H33.5394L32.2701 18.976L30.951 20.408H21.1946V12.784H17.9756L21.9993 4H25.9151L26.8609 5.992V4H31.7226L32.5356 6.088L33.332 4H36.9741V5.23999H34.1617L32.884 8.48801L32.5439 9.36799L30.9095 5.23999H28.0971V11.64L25.1768 5.23999H22.9119L19.975 11.64H21.8998L22.4141 10.408H25.6331L26.1475 11.64H28.0971H29.7895V7.472L29.7812 6.63199L30.1131 7.472L31.7309 11.64H33.3403L34.9664 7.472L35.2817 6.64V11.64H36.9741V14.144L35.0991 15.96L36.9741 17.8ZM22.5551 19.168V12.792H28.0971V14.176H24.2476V15.296H28.0224V16.672H24.2476V17.784H28.0971V19.168H22.5551ZM36.4598 19.168H34.2612L32.2535 17.088L30.2375 19.168H28.0971L31.1916 15.992L28.0971 12.792H30.3039L32.295 14.864L34.2944 12.792H36.4598L33.3569 15.968L36.4598 19.168Z" fill="#016FD0"/>
<path d="M24.0236 6.60799L23.6918 7.40802L23.0031 9.02397H25.044L24.3555 7.40802L24.0236 6.60799Z" fill="#016FD0"/>
</svg>
