<svg width="38" height="24" viewBox="0 0 38 24" fill="none" xmlns="http://www.w3.org/2000/svg">
<g clip-path="url(#clip0_764_3624)">
<rect width="37.3333" height="24" rx="2" fill="white"/>
<path d="M37.3333 16C37.3333 16 29.0309 21.5233 13.8271 24H37.3333V16Z" fill="#F48120"/>
<path d="M4.22216 9.26721H2.76562V14.1875H4.22216C4.99217 14.1875 5.54881 14.0086 6.04051 13.6239C6.62498 13.1587 6.96824 12.4609 6.96824 11.7363C6.95896 10.2781 5.83641 9.26721 4.22216 9.26721ZM5.3911 12.9708C5.07567 13.2392 4.67675 13.3645 4.02734 13.3645H3.75829V10.1081H4.02734C4.66747 10.1081 5.05712 10.2155 5.3911 10.5018C5.73436 10.797 5.93846 11.2532 5.93846 11.7273C5.93846 12.2015 5.73436 12.6756 5.3911 12.9708Z" fill="#2E3340"/>
<path d="M8.41552 9.26721H7.42285V14.1875H8.41552V9.26721Z" fill="#2E3340"/>
<path d="M10.8462 11.1548C10.2524 10.9401 10.0762 10.797 10.0762 10.5375C10.0762 10.2244 10.3916 9.99183 10.8183 9.99183C11.1152 9.99183 11.3657 10.1081 11.6162 10.3944L12.1357 9.74134C11.709 9.3835 11.1987 9.19564 10.6328 9.19564C9.7329 9.19564 9.03711 9.80396 9.03711 10.6091C9.03711 11.289 9.36181 11.6379 10.2895 11.9599C10.6792 12.0941 10.874 12.1836 10.9761 12.2373C11.1709 12.3625 11.2729 12.5414 11.2729 12.7472C11.2729 13.1498 10.9482 13.445 10.5029 13.445C10.0298 13.445 9.64941 13.2124 9.41748 12.7919L8.77734 13.3913C9.23193 14.0443 9.78857 14.3306 10.54 14.3306C11.5698 14.3306 12.3027 13.6686 12.3027 12.7114C12.3213 11.9152 11.978 11.5574 10.8462 11.1548Z" fill="#2E3340"/>
<path d="M12.6279 11.7363C12.6279 13.1855 13.8061 14.3038 15.3183 14.3038C15.7451 14.3038 16.1162 14.2233 16.5615 14.0175V12.8903C16.1626 13.275 15.81 13.4271 15.3647 13.4271C14.3628 13.4271 13.6484 12.7293 13.6484 11.7274C13.6484 10.7791 14.3813 10.0366 15.3183 10.0366C15.7915 10.0366 16.1533 10.1976 16.5615 10.5912V9.46402C16.1255 9.24932 15.7637 9.15986 15.3369 9.15986C13.8433 9.15986 12.6279 10.3049 12.6279 11.7363Z" fill="#2E3340"/>
<path d="M24.4648 12.5772L23.1011 9.26721H22.0156L24.1772 14.3127H24.7153L26.914 9.26721H25.8379L24.4648 12.5772Z" fill="#2E3340"/>
<path d="M27.3691 14.1875H30.1894V13.3555H28.3618V12.0315H30.1245V11.1995H28.3618V10.1081H30.1894V9.26721H27.3691V14.1875Z" fill="#2E3340"/>
<path d="M34.1318 10.7254C34.1318 9.80395 33.4731 9.27614 32.3227 9.27614H30.8477V14.1964H31.8403V12.2194H31.9702L33.3432 14.1964H34.5678L32.9629 12.121C33.7143 11.9689 34.1318 11.4768 34.1318 10.7254ZM32.1279 11.5395H31.8403V10.0455H32.1465C32.7681 10.0455 33.102 10.296 33.102 10.7791C33.102 11.2711 32.7681 11.5395 32.1279 11.5395Z" fill="#2E3340"/>
<path d="M19.6128 14.3664C21.114 14.3664 22.331 13.1929 22.331 11.7452C22.331 10.2976 21.114 9.12407 19.6128 9.12407C18.1115 9.12407 16.8945 10.2976 16.8945 11.7452C16.8945 13.1929 18.1115 14.3664 19.6128 14.3664Z" fill="#F48120"/>
</g>
<rect x="0.5" y="0.5" width="36.3333" height="23" rx="1.5" stroke="#E7ECFF"/>
<defs>
<clipPath id="clip0_764_3624">
<rect width="37.3333" height="24" rx="2" fill="white"/>
</clipPath>
</defs>
</svg>
