<svg width="38" height="24" viewBox="0 0 38 24" fill="none" xmlns="http://www.w3.org/2000/svg">
<rect x="1.16699" y="0.5" width="36.3333" height="23" rx="1.5" fill="white"/>
<rect x="1.16699" y="0.5" width="36.3333" height="23" rx="1.5" stroke="#E7ECFF"/>
<path d="M16.1562 6.42278H22.512V17.4351H16.1562V6.42278Z" fill="#FF5F00"/>
<path d="M16.5598 11.9289C16.5598 9.69142 17.6494 7.70688 19.324 6.42276C18.0933 5.48885 16.5396 4.92461 14.8448 4.92461C10.8295 4.92461 7.58105 8.05709 7.58105 11.9289C7.58105 15.8007 10.8295 18.9332 14.8448 18.9332C16.5396 18.9332 18.0933 18.369 19.324 17.4351C17.6494 16.1704 16.5598 14.1664 16.5598 11.9289Z" fill="#EB001B"/>
<path d="M31.0867 11.9289C31.0867 15.8007 27.8383 18.9332 23.823 18.9332C22.1282 18.9332 20.5745 18.369 19.3438 17.4351C21.0386 16.1509 22.108 14.1664 22.108 11.9289C22.108 9.69142 21.0184 7.70688 19.3438 6.42276C20.5745 5.48885 22.1282 4.92461 23.823 4.92461C27.8383 4.92461 31.0867 8.07655 31.0867 11.9289Z" fill="#F79E1B"/>
</svg>
