<svg width="38" height="24" viewBox="0 0 38 24" fill="none" xmlns="http://www.w3.org/2000/svg">
<rect x="0.833008" y="0.5" width="36.3333" height="23" rx="1.5" fill="white"/>
<rect x="0.833008" y="0.5" width="36.3333" height="23" rx="1.5" stroke="#E7ECFF"/>
<path d="M23.3943 7.31468C21.3326 7.31468 19.4901 8.34515 19.4901 10.249C19.4901 12.4324 22.7578 12.5832 22.7578 13.6801C22.7578 14.142 22.2089 14.5554 21.2715 14.5554C19.941 14.5554 18.9466 13.9777 18.9466 13.9777L18.5212 15.8989C18.5212 15.8989 19.6667 16.3869 21.1875 16.3869C23.4416 16.3869 25.2154 15.3058 25.2154 13.3694C25.2154 11.0622 21.9341 10.9159 21.9341 9.89783C21.9341 9.53604 22.3847 9.13963 23.3194 9.13963C24.3742 9.13963 25.2347 9.55976 25.2347 9.55976L25.6511 7.70418C25.6511 7.70418 24.7148 7.31468 23.3943 7.31468ZM4.53137 7.45472L4.48145 7.73481C4.48145 7.73481 5.34882 7.88789 6.13004 8.19324C7.13592 8.54338 7.20757 8.74722 7.37698 9.38033L9.223 16.2425H11.6976L15.5099 7.45472H13.041L10.5913 13.4296L9.59175 8.36501C9.50007 7.78537 9.03573 7.45472 8.46734 7.45472H4.53137ZM16.5027 7.45472L14.5659 16.2425H16.9202L18.8502 7.45472H16.5027ZM29.6336 7.45472C29.0659 7.45472 28.7651 7.74781 28.5443 8.25998L25.0951 16.2425H27.564L28.0417 14.9121H31.0496L31.34 16.2425H33.5185L31.618 7.45472H29.6336ZM29.9547 9.8289L30.6865 13.1265H28.7259L29.9547 9.8289Z" fill="#1434CB"/>
</svg>
