<svg width="44" height="46" viewBox="0 0 44 46" fill="none" xmlns="http://www.w3.org/2000/svg">
<path d="M32 36.3333C32.5304 36.3333 33.0391 36.1226 33.4142 35.7475C33.7893 35.3725 34 34.8637 34 34.3333C34 33.8029 33.7893 33.2942 33.4142 32.9191C33.0391 32.544 32.5304 32.3333 32 32.3333C31.4696 32.3333 30.9609 32.544 30.5858 32.9191C30.2107 33.2942 30 33.8029 30 34.3333C30 34.8637 30.2107 35.3725 30.5858 35.7475C30.9609 36.1226 31.4696 36.3333 32 36.3333ZM18.6667 36.3333C19.1971 36.3333 19.7058 36.1226 20.0809 35.7475C20.456 35.3725 20.6667 34.8637 20.6667 34.3333C20.6667 33.8029 20.456 33.2942 20.0809 32.9191C19.7058 32.544 19.1971 32.3333 18.6667 32.3333C18.1362 32.3333 17.6275 32.544 17.2525 32.9191C16.8774 33.2942 16.6667 33.8029 16.6667 34.3333C16.6667 34.8637 16.8774 35.3725 17.2525 35.7475C17.6275 36.1226 18.1362 36.3333 18.6667 36.3333Z" fill="#546881" stroke="#546881" stroke-width="1.5" stroke-linecap="round" stroke-linejoin="round"/>
<path d="M12.6667 12.3333H35.3333L32.6667 27M12.6667 12.3333L15.3333 27H32.6667M12.6667 12.3333C12.444 11.444 11.3333 9.66666 8.66667 9.66666M32.6667 27H12.9733C10.5947 27 9.33334 28.0413 9.33334 29.6667C9.33334 31.292 10.5947 32.3333 12.9733 32.3333H32" stroke="#546881" stroke-width="1.5" stroke-linecap="round" stroke-linejoin="round"/>
</svg>
