<svg width="24" height="25" viewBox="0 0 24 25" fill="none" xmlns="http://www.w3.org/2000/svg">
<path d="M9.857 5.33387H14.1427C14.1427 4.76555 13.917 4.2205 13.5151 3.81864C13.1132 3.41678 12.5682 3.19101 11.9999 3.19101C11.4315 3.19101 10.8865 3.41678 10.4846 3.81864C10.0828 4.2205 9.857 4.76555 9.857 5.33387ZM8.57129 5.33387C8.57129 4.42455 8.93251 3.55248 9.57549 2.9095C10.2185 2.26652 11.0905 1.9053 11.9999 1.9053C12.9092 1.9053 13.7812 2.26652 14.4242 2.9095C15.0672 3.55248 15.4284 4.42455 15.4284 5.33387H20.7856C20.9561 5.33387 21.1196 5.4016 21.2401 5.52216C21.3607 5.64272 21.4284 5.80623 21.4284 5.97673C21.4284 6.14722 21.3607 6.31073 21.2401 6.43129C21.1196 6.55185 20.9561 6.61958 20.7856 6.61958H19.6627L18.6196 19.1364C18.5437 20.047 18.1284 20.8958 17.456 21.5145C16.7836 22.1332 15.9033 22.4767 14.9896 22.4767H9.01015C8.09643 22.4767 7.21609 22.1332 6.54372 21.5145C5.87135 20.8958 5.45604 20.047 5.38015 19.1364L4.337 6.61958H3.21415C3.04365 6.61958 2.88014 6.55185 2.75958 6.43129C2.63902 6.31073 2.57129 6.14722 2.57129 5.97673C2.57129 5.80623 2.63902 5.64272 2.75958 5.52216C2.88014 5.4016 3.04365 5.33387 3.21415 5.33387H8.57129ZM6.66157 19.0293C6.71059 19.6185 6.97925 20.1678 7.41427 20.5682C7.84929 20.9686 8.4189 21.1909 9.01015 21.191H14.9896C15.5808 21.1909 16.1504 20.9686 16.5854 20.5682C17.0205 20.1678 17.2891 19.6185 17.3381 19.0293L18.3736 6.61958H5.627L6.66157 19.0293ZM10.0713 9.61958C10.2418 9.61958 10.4053 9.68731 10.5259 9.80787C10.6464 9.92843 10.7141 10.0919 10.7141 10.2624V17.5482C10.7141 17.7186 10.6464 17.8822 10.5259 18.0027C10.4053 18.1233 10.2418 18.191 10.0713 18.191C9.90079 18.191 9.73728 18.1233 9.61672 18.0027C9.49616 17.8822 9.42843 17.7186 9.42843 17.5482V10.2624C9.42843 10.0919 9.49616 9.92843 9.61672 9.80787C9.73728 9.68731 9.90079 9.61958 10.0713 9.61958ZM14.5713 10.2624C14.5713 10.0919 14.5036 9.92843 14.383 9.80787C14.2624 9.68731 14.0989 9.61958 13.9284 9.61958C13.7579 9.61958 13.5944 9.68731 13.4739 9.80787C13.3533 9.92843 13.2856 10.0919 13.2856 10.2624V17.5482C13.2856 17.7186 13.3533 17.8822 13.4739 18.0027C13.5944 18.1233 13.7579 18.191 13.9284 18.191C14.0989 18.191 14.2624 18.1233 14.383 18.0027C14.5036 17.8822 14.5713 17.7186 14.5713 17.5482V10.2624Z" fill="#FF474D"/>
</svg>
