<svg width="24" height="25" viewBox="0 0 24 25" fill="none" xmlns="http://www.w3.org/2000/svg">
<path d="M17 9.19305C19.175 9.20505 20.353 9.30205 21.121 10.0701C22 10.9491 22 12.3631 22 15.1911V16.1911C22 19.0201 22 20.4341 21.121 21.3131C20.243 22.1911 18.828 22.1911 16 22.1911H8C5.172 22.1911 3.757 22.1911 2.879 21.3131C2 20.4331 2 19.0201 2 16.1911V15.1911C2 12.3631 2 10.9491 2.879 10.0701C3.647 9.30205 4.825 9.20505 7 9.19305" stroke="#0075B8" stroke-width="1.5" stroke-linecap="round"/>
<path d="M12 2.19104V15.191M12 15.191L9 11.691M12 15.191L15 11.691" stroke="#0075B8" stroke-width="1.5" stroke-linecap="round" stroke-linejoin="round"/>
</svg>
