<svg width="24" height="25" viewBox="0 0 24 25" fill="none" xmlns="http://www.w3.org/2000/svg">
<path fill-rule="evenodd" clip-rule="evenodd" d="M21.4549 5.60702C21.5499 5.75123 21.5922 5.9238 21.5747 6.09561C21.5573 6.26741 21.481 6.42792 21.3589 6.55002L12.1659 15.742C12.0718 15.836 11.9545 15.9033 11.8259 15.937L7.99689 16.937C7.87032 16.97 7.73732 16.9694 7.61109 16.9351C7.48485 16.9008 7.36978 16.8341 7.27729 16.7416C7.18479 16.6491 7.1181 16.5341 7.08382 16.4078C7.04955 16.2816 7.04888 16.1486 7.08189 16.022L8.08189 12.194C8.11109 12.0791 8.16616 11.9724 8.24289 11.882L17.4699 2.66102C17.6105 2.52057 17.8011 2.44168 17.9999 2.44168C18.1986 2.44168 18.3893 2.52057 18.5299 2.66102L21.3589 5.48902C21.3948 5.52503 21.4269 5.56456 21.4549 5.60702ZM19.7679 6.01902L17.9999 4.25202L9.48189 12.77L8.85689 15.163L11.2499 14.538L19.7679 6.01902Z" fill="#0075B8"/>
<path d="M19.6406 17.351C19.9139 15.015 20.0012 12.6609 19.9016 10.311C19.8994 10.2557 19.9087 10.2004 19.9288 10.1488C19.9489 10.0972 19.9795 10.0503 20.0186 10.011L21.0026 9.02702C21.0295 8.99998 21.0636 8.98128 21.1008 8.97316C21.1381 8.96505 21.1769 8.96787 21.2126 8.98128C21.2483 8.99469 21.2794 9.01813 21.3021 9.04877C21.3248 9.07942 21.3381 9.11596 21.3406 9.15402C21.5258 11.9453 21.4555 14.7476 21.1306 17.526C20.8946 19.548 19.2706 21.133 17.2576 21.358C13.7629 21.745 10.2362 21.745 6.74157 21.358C4.72957 21.133 3.10457 19.548 2.86857 17.526C2.45397 13.9814 2.45397 10.4006 2.86857 6.85602C3.10457 4.83402 4.72857 3.24902 6.74157 3.02402C9.39394 2.7299 12.0663 2.65865 14.7306 2.81102C14.7687 2.81376 14.8052 2.82736 14.8359 2.85023C14.8665 2.8731 14.8899 2.90426 14.9034 2.94004C14.9169 2.97581 14.9198 3.0147 14.9119 3.05209C14.9039 3.08948 14.8854 3.12381 14.8586 3.15102L13.8656 4.14302C13.8267 4.18177 13.7803 4.21214 13.7292 4.23226C13.6781 4.25238 13.6234 4.26183 13.5686 4.26002C11.3453 4.18444 9.11952 4.26966 6.90857 4.51502C6.26251 4.58653 5.65942 4.87374 5.19672 5.33027C4.73403 5.7868 4.43874 6.38598 4.35857 7.03102C3.95762 10.4593 3.95762 13.9227 4.35857 17.351C4.43874 17.9961 4.73403 18.5952 5.19672 19.0518C5.65942 19.5083 6.26251 19.7955 6.90857 19.867C10.2636 20.242 13.7356 20.242 17.0916 19.867C17.7376 19.7955 18.3407 19.5083 18.8034 19.0518C19.2661 18.5952 19.5604 17.9961 19.6406 17.351Z" fill="#0075B8"/>
</svg>
