<svg width="86" height="85" viewBox="0 0 86 85" fill="none" xmlns="http://www.w3.org/2000/svg">
<circle cx="43.3372" cy="42.5001" r="42.5" fill="#D9EAF4"/>
<path d="M32.3372 59.0001H55.9086" stroke="#0075B8" stroke-width="2" stroke-linecap="round" stroke-linejoin="round"/>
<path d="M43.3366 43.2856C45.9402 43.2856 48.0509 41.1749 48.0509 38.5713C48.0509 35.9677 45.9402 33.857 43.3366 33.857C40.733 33.857 38.6223 35.9677 38.6223 38.5713C38.6223 41.1749 40.733 43.2856 43.3366 43.2856Z" stroke="#0075B8" stroke-width="2" stroke-linecap="round" stroke-linejoin="round"/>
<path d="M55.9077 38.6924C55.9077 50.1154 43.3363 59.0001 43.3363 59.0001C43.3363 59.0001 30.7649 50.1154 30.7649 38.6924C30.7649 35.3262 32.0894 32.0978 34.447 29.7176C36.8046 27.3373 40.0022 26.0001 43.3363 26.0001C46.6705 26.0001 49.8681 27.3373 52.2257 29.7176C54.5833 32.0978 55.9077 35.3262 55.9077 38.6924V38.6924Z" stroke="#0075B8" stroke-width="2" stroke-linecap="round" stroke-linejoin="round"/>
</svg>
