<svg width="86" height="85" viewBox="0 0 86 85" fill="none" xmlns="http://www.w3.org/2000/svg">
<circle cx="43.3372" cy="42.5001" r="42.5" fill="#D9EAF4"/>
<path d="M50.2122 42.4963C50.2122 46.2933 47.1341 49.3713 43.3372 49.3713C39.5402 49.3713 36.4622 46.2933 36.4622 42.4963C36.4622 38.6994 39.5402 35.6213 43.3372 35.6213C47.1341 35.6213 50.2122 38.6994 50.2122 42.4963ZM50.2122 42.4963C50.2122 46.2948 51.5872 49.3713 55.0247 49.3713C58.4622 49.3713 59.8372 46.2948 59.8372 42.4963C59.8363 38.8201 58.6078 35.2495 56.3465 32.351C54.0853 29.4525 50.9208 27.3922 47.3553 26.4969C43.7897 25.6017 40.0273 25.9228 36.6651 27.4094C33.3029 28.8959 30.5333 31.4627 28.796 34.7025C27.0587 37.9423 26.453 41.6695 27.0752 45.2927C27.6974 48.9158 29.5117 52.2275 32.2303 54.7021C34.9488 57.1767 38.416 58.6726 42.0815 58.9524C45.7471 59.2321 49.4011 58.2797 52.4637 56.2463M50.2122 42.4963V35.6213" stroke="#0075B8" stroke-width="2" stroke-linecap="round" stroke-linejoin="round"/>
</svg>
