<svg width="48" height="48" viewBox="0 0 48 48" fill="none" xmlns="http://www.w3.org/2000/svg">
<rect x="0.75" y="0.75" width="46.5" height="46.5" rx="23.25" fill="#D9EAF4"/>
<rect x="0.75" y="0.75" width="46.5" height="46.5" rx="23.25" stroke="#0075B8" stroke-width="1.5"/>
<path d="M12.875 19.5H22.625L23.375 21H13.625L12.875 19.5ZM13.875 22.5H23.625L24.375 24H14.625L13.875 22.5ZM30.125 30.5C30.955 30.5 31.625 29.83 31.625 29C31.625 28.17 30.955 27.5 30.125 27.5C29.295 27.5 28.625 28.17 28.625 29C28.625 29.83 29.295 30.5 30.125 30.5ZM31.625 21.5H29.125V24H33.585L31.625 21.5ZM20.125 30.5C20.955 30.5 21.625 29.83 21.625 29C21.625 28.17 20.955 27.5 20.125 27.5C19.295 27.5 18.625 28.17 18.625 29C18.625 29.83 19.295 30.5 20.125 30.5ZM32.125 20L35.125 24V29H33.125C33.125 30.66 31.785 32 30.125 32C28.465 32 27.125 30.66 27.125 29H23.125C23.125 30.66 21.775 32 20.125 32C18.465 32 17.125 30.66 17.125 29H15.125V25.5H17.125V27H17.885C18.435 26.39 19.235 26 20.125 26C21.015 26 21.815 26.39 22.365 27H27.125V18H15.125C15.125 16.89 16.015 16 17.125 16H29.125V20H32.125Z" fill="#0075B8"/>
</svg>
