<svg width="48" height="48" viewBox="0 0 48 48" fill="none" xmlns="http://www.w3.org/2000/svg">
<rect x="0.75" y="0.75" width="46.5" height="46.5" rx="23.25" fill="#DFF5E6"/>
<rect x="0.75" y="0.75" width="46.5" height="46.5" rx="23.25" stroke="#2ABB56" stroke-width="1.5"/>
<path d="M35.25 17.75V24M12.75 17.75V30.4512C12.75 32.18 15.1825 33.2075 20.0462 35.2613C22 36.0875 22.9775 36.5 24 36.5V23.1937M27.75 32.75C27.75 32.75 28.8438 32.75 29.9375 35.25C29.9375 35.25 33.4125 29 36.5 27.75" stroke="#2ABB56" stroke-width="1.5" stroke-linecap="round" stroke-linejoin="round"/>
<path d="M16.5 24L19 25.25M30.25 14L17.75 20.25M19.4075 21.1137L15.7563 19.3475C13.7525 18.3775 12.75 17.8925 12.75 17.125C12.75 16.3575 13.7525 15.8725 15.7563 14.9025L19.4062 13.1363C21.6625 12.045 22.7875 11.5 24 11.5C25.2125 11.5 26.3387 12.045 28.5925 13.1363L32.2437 14.9025C34.2475 15.8725 35.25 16.3575 35.25 17.125C35.25 17.8925 34.2475 18.3775 32.2437 19.3475L28.5938 21.1137C26.3375 22.205 25.2125 22.75 24 22.75C22.7875 22.75 21.6613 22.205 19.4075 21.1137Z" stroke="#2ABB56" stroke-width="1.5" stroke-linecap="round" stroke-linejoin="round"/>
</svg>
