<svg width="48" height="48" viewBox="0 0 48 48" fill="none" xmlns="http://www.w3.org/2000/svg">
<rect x="0.75" y="0.75" width="46.5" height="46.5" rx="23.25" fill="#FFECEC"/>
<rect x="0.75" y="0.75" width="46.5" height="46.5" rx="23.25" stroke="#FF5959" stroke-width="1.5"/>
<path fill-rule="evenodd" clip-rule="evenodd" d="M18.8732 14.5356C21.0441 13.4856 21.9145 13.0833 22.834 13.0833L18.8732 14.5356ZM18.8732 14.5356L15.4666 16.1841C15.4666 16.1841 15.4666 16.184 15.4666 16.1841C14.5088 16.6477 13.8674 16.9603 13.4554 17.2386C13.2545 17.3742 13.1566 17.4708 13.1113 17.5318C13.0912 17.5588 13.0859 17.573 13.085 17.5757C13.0849 17.5758 13.085 17.5755 13.085 17.5757C13.0845 17.5769 13.084 17.5783 13.084 17.5833C13.084 17.5884 13.0844 17.5895 13.0848 17.5907C13.0848 17.5906 13.0849 17.5908 13.0848 17.5907C13.0858 17.5933 13.0912 17.6079 13.1113 17.6349C13.1566 17.6959 13.2545 17.7924 13.4554 17.9281C13.8674 18.2064 14.5087 18.5189 15.4664 18.9825C15.4664 18.9825 15.4665 18.9825 15.4664 18.9825L16.9364 19.6936L27.0268 14.6484L26.7937 14.5357C24.6255 13.4858 23.7535 13.0833 22.834 13.0833M28.7316 15.4731L18.6412 20.5183L18.8742 20.631C21.0425 21.6809 21.9145 22.0833 22.834 22.0833C23.7535 22.0833 24.6239 21.681 26.7949 20.631L30.2014 18.9826C30.2013 18.9826 30.2014 18.9826 30.2014 18.9826C31.1591 18.519 31.8006 18.2064 32.2126 17.9281C32.4135 17.7924 32.5113 17.6959 32.5566 17.6349C32.5767 17.6079 32.5821 17.5936 32.583 17.591C32.5835 17.5898 32.584 17.5884 32.584 17.5833C32.584 17.5783 32.5836 17.5772 32.5831 17.576C32.5822 17.5734 32.5767 17.5588 32.5566 17.5318C32.5113 17.4708 32.4135 17.3742 32.2126 17.2386C31.8006 16.9603 31.1593 16.6478 30.2016 16.1842C30.2015 16.1841 30.2016 16.1842 30.2016 16.1842L28.7316 15.4731ZM18.3999 13.0983C20.3338 12.1623 21.5302 11.5833 22.834 11.5833C24.1401 11.5833 25.3392 12.1643 27.2772 13.1031C27.3332 13.1303 27.3899 13.1577 27.4472 13.1855L30.8547 14.8338L30.9124 14.8617C31.7992 15.291 32.5398 15.6495 33.0522 15.9955C33.5653 16.3421 34.084 16.83 34.084 17.5833C34.084 17.7052 34.0704 17.8202 34.0455 17.9287C34.0704 18.0035 34.084 18.0835 34.084 18.1667V24C34.084 24.4142 33.7482 24.75 33.334 24.75C32.9198 24.75 32.584 24.4142 32.584 24V19.4581C32.1252 19.7179 31.5575 19.9927 30.9124 20.3049L30.8549 20.3327L27.4482 21.9813C27.3875 22.0106 27.3274 22.0397 27.2681 22.0684C25.7079 22.8235 24.6278 23.3462 23.584 23.5201V34.8089C23.9133 34.7173 24.3063 34.5615 24.8733 34.3199C25.2544 34.1575 25.6949 34.3348 25.8573 34.7158C26.0197 35.0969 25.8424 35.5374 25.4613 35.6998C24.4448 36.133 23.7264 36.4167 22.834 36.4167C21.7256 36.4167 20.6801 35.9749 19.0047 35.2671C18.9544 35.2458 18.9035 35.2243 18.8521 35.2026L18.7961 35.179C16.5761 34.241 14.8324 33.5043 13.6505 32.7946C12.4823 32.0932 11.584 31.2557 11.584 30.02V18.1667C11.584 18.0835 11.5975 18.0035 11.6225 17.9287C11.5976 17.8202 11.584 17.7052 11.584 17.5833C11.584 16.83 12.1027 16.3421 12.6158 15.9955C13.1281 15.6495 13.8687 15.291 14.7556 14.8617C14.7747 14.8525 14.7938 14.8432 14.813 14.8339L18.2198 13.1854C18.2805 13.156 18.3406 13.1269 18.3999 13.0983ZM13.084 19.4581V30.02C13.084 30.3978 13.3209 30.8471 14.4227 31.5086C15.5009 32.156 17.1428 32.852 19.4356 33.8207C20.7286 34.3667 21.4871 34.6798 22.084 34.8223V23.5201C21.0378 23.3459 19.9549 22.8213 18.3908 22.0635C18.3347 22.0364 18.2781 22.0089 18.2208 21.9812L14.8132 20.3328L14.7556 20.3049C14.1105 19.9927 13.5428 19.7179 13.084 19.4581ZM15.1632 23.6646C15.3484 23.2941 15.7989 23.1439 16.1694 23.3292L18.5027 24.4958C18.8732 24.6811 19.0234 25.1316 18.8381 25.5021C18.6529 25.8726 18.2024 26.0227 17.8319 25.8375L15.4986 24.6708C15.1281 24.4856 14.9779 24.0351 15.1632 23.6646ZM28.137 26.9697C28.4299 26.6768 28.9048 26.6768 29.1976 26.9697L32.1673 29.9393L35.137 26.9697C35.4299 26.6768 35.9048 26.6768 36.1977 26.9697C36.4905 27.2626 36.4905 27.7374 36.1977 28.0303L33.228 31L36.1977 33.9697C36.4905 34.2626 36.4905 34.7374 36.1977 35.0303C35.9048 35.3232 35.4299 35.3232 35.137 35.0303L32.1673 32.0607L29.1976 35.0303C28.9048 35.3232 28.4299 35.3232 28.137 35.0303C27.8441 34.7374 27.8441 34.2626 28.137 33.9697L31.1067 31L28.137 28.0303C27.8441 27.7374 27.8441 27.2626 28.137 26.9697Z" fill="#FF5959"/>
</svg>
