<svg width="14" height="14" viewBox="0 0 14 14" fill="none" xmlns="http://www.w3.org/2000/svg">
<g clip-path="url(#clip0_425_4354)">
<mask id="path-1-inside-1_425_4354" fill="white">
<path d="M7.02172 8.69399L4.24342 12.047V1.58339C4.24342 1.51377 4.21576 1.447 4.16653 1.39777C4.1173 1.34854 4.05054 1.32089 3.98092 1.32089C3.9113 1.32089 3.84453 1.34854 3.7953 1.39777C3.74607 1.447 3.71842 1.51377 3.71842 1.58339V12.0323L0.940117 8.69364C0.918078 8.66712 0.891031 8.6452 0.860521 8.62913C0.830011 8.61306 0.796634 8.60316 0.762297 8.59999C0.727961 8.59682 0.693336 8.60045 0.6604 8.61066C0.627465 8.62087 0.596863 8.63747 0.570342 8.65951C0.543822 8.68155 0.521902 8.7086 0.505834 8.73911C0.489767 8.76962 0.479866 8.803 0.476697 8.83733C0.473528 8.87167 0.477154 8.90629 0.487366 8.93923C0.497579 8.97216 0.514178 9.00277 0.536217 9.02929L3.78597 12.9342C3.8106 12.9639 3.84146 12.9878 3.87636 13.0042C3.91127 13.0206 3.94936 13.0291 3.98792 13.0291H3.98827C4.06632 13.0291 4.14017 12.9941 4.19022 12.9342L7.42632 9.02929C7.47078 8.97563 7.49211 8.90651 7.48561 8.83714C7.47911 8.76776 7.44532 8.7038 7.39167 8.65934C7.33801 8.61487 7.2689 8.59354 7.19952 8.60004C7.13014 8.60654 7.06618 8.64033 7.02172 8.69399ZM13.4635 4.97069L10.2141 1.06574C10.1894 1.03615 10.1586 1.01232 10.1238 0.995928C10.089 0.979539 10.051 0.970991 10.0125 0.970886C9.93442 0.970886 9.85987 1.00589 9.81052 1.06574L6.57407 4.97069C6.53027 5.02436 6.50946 5.09318 6.51619 5.16213C6.52291 5.23108 6.55662 5.29458 6.60997 5.33878C6.66331 5.38298 6.73197 5.4043 6.80097 5.39809C6.86997 5.39188 6.93372 5.35865 6.97832 5.30564L9.75662 1.95299V12.4166C9.75662 12.4862 9.78427 12.553 9.8335 12.6022C9.88273 12.6514 9.9495 12.6791 10.0191 12.6791C10.0887 12.6791 10.1555 12.6514 10.2047 12.6022C10.254 12.553 10.2816 12.4862 10.2816 12.4166V1.96734L13.0599 5.30599C13.0818 5.33265 13.1087 5.35471 13.1392 5.37089C13.1697 5.38706 13.203 5.39703 13.2374 5.40022C13.2717 5.40341 13.3064 5.39976 13.3393 5.38947C13.3722 5.37918 13.4028 5.36246 13.4292 5.34029C13.4827 5.29582 13.5164 5.2319 13.5229 5.16259C13.5293 5.09328 13.5079 5.02425 13.4635 4.97069Z"/>
</mask>
<path d="M7.02172 8.69399L4.24342 12.047V1.58339C4.24342 1.51377 4.21576 1.447 4.16653 1.39777C4.1173 1.34854 4.05054 1.32089 3.98092 1.32089C3.9113 1.32089 3.84453 1.34854 3.7953 1.39777C3.74607 1.447 3.71842 1.51377 3.71842 1.58339V12.0323L0.940117 8.69364C0.918078 8.66712 0.891031 8.6452 0.860521 8.62913C0.830011 8.61306 0.796634 8.60316 0.762297 8.59999C0.727961 8.59682 0.693336 8.60045 0.6604 8.61066C0.627465 8.62087 0.596863 8.63747 0.570342 8.65951C0.543822 8.68155 0.521902 8.7086 0.505834 8.73911C0.489767 8.76962 0.479866 8.803 0.476697 8.83733C0.473528 8.87167 0.477154 8.90629 0.487366 8.93923C0.497579 8.97216 0.514178 9.00277 0.536217 9.02929L3.78597 12.9342C3.8106 12.9639 3.84146 12.9878 3.87636 13.0042C3.91127 13.0206 3.94936 13.0291 3.98792 13.0291H3.98827C4.06632 13.0291 4.14017 12.9941 4.19022 12.9342L7.42632 9.02929C7.47078 8.97563 7.49211 8.90651 7.48561 8.83714C7.47911 8.76776 7.44532 8.7038 7.39167 8.65934C7.33801 8.61487 7.2689 8.59354 7.19952 8.60004C7.13014 8.60654 7.06618 8.64033 7.02172 8.69399ZM13.4635 4.97069L10.2141 1.06574C10.1894 1.03615 10.1586 1.01232 10.1238 0.995928C10.089 0.979539 10.051 0.970991 10.0125 0.970886C9.93442 0.970886 9.85987 1.00589 9.81052 1.06574L6.57407 4.97069C6.53027 5.02436 6.50946 5.09318 6.51619 5.16213C6.52291 5.23108 6.55662 5.29458 6.60997 5.33878C6.66331 5.38298 6.73197 5.4043 6.80097 5.39809C6.86997 5.39188 6.93372 5.35865 6.97832 5.30564L9.75662 1.95299V12.4166C9.75662 12.4862 9.78427 12.553 9.8335 12.6022C9.88273 12.6514 9.9495 12.6791 10.0191 12.6791C10.0887 12.6791 10.1555 12.6514 10.2047 12.6022C10.254 12.553 10.2816 12.4862 10.2816 12.4166V1.96734L13.0599 5.30599C13.0818 5.33265 13.1087 5.35471 13.1392 5.37089C13.1697 5.38706 13.203 5.39703 13.2374 5.40022C13.2717 5.40341 13.3064 5.39976 13.3393 5.38947C13.3722 5.37918 13.4028 5.36246 13.4292 5.34029C13.4827 5.29582 13.5164 5.2319 13.5229 5.16259C13.5293 5.09328 13.5079 5.02425 13.4635 4.97069Z" fill="#909DAD"/>
<path d="M7.02172 8.69399L5.48179 7.41782L5.4817 7.41792L7.02172 8.69399ZM4.24342 12.047H2.24342V17.5953L5.78344 13.323L4.24342 12.047ZM3.71842 12.0323L2.18109 13.3116L5.71842 17.5624V12.0323H3.71842ZM0.940117 8.69364L-0.598072 9.97191L-0.59721 9.97294L0.940117 8.69364ZM0.536217 9.02929L-1.00197 10.3076L-1.00107 10.3086L0.536217 9.02929ZM3.78597 12.9342L5.32494 11.6569L5.32326 11.6549L3.78597 12.9342ZM3.98792 13.0291L3.98762 15.0291H3.98792V13.0291ZM4.19022 12.9342L5.72447 14.2173L5.73015 14.2104L4.19022 12.9342ZM7.42632 9.02929L5.88639 7.75312L5.88638 7.75312L7.42632 9.02929ZM13.4635 4.97069L15.0025 3.69338L15.0008 3.69142L13.4635 4.97069ZM10.2141 1.06574L8.67669 2.34498L8.67671 2.34501L10.2141 1.06574ZM10.0125 0.970886L10.0179 -1.02911H10.0125V0.970886ZM9.81052 1.06574L11.3504 2.34199L11.3536 2.3381L9.81052 1.06574ZM6.57407 4.97069L5.0342 3.69444L5.02934 3.7003L5.02452 3.70621L6.57407 4.97069ZM6.97832 5.30564L8.50877 6.59316L8.51354 6.58749L8.51827 6.58178L6.97832 5.30564ZM9.75662 1.95299H11.7566V-3.59492L8.21666 0.676844L9.75662 1.95299ZM9.75662 12.4166H11.7566H9.75662ZM10.2816 1.96734L11.8189 0.68803L8.28162 -3.56274V1.96734H10.2816ZM13.0599 5.30599L14.6061 4.03735L14.5972 4.02668L13.0599 5.30599ZM13.4292 5.34029L12.1515 3.80157L12.1431 3.80859L13.4292 5.34029ZM5.4817 7.41792L2.7034 10.7709L5.78344 13.323L8.56174 9.97005L5.4817 7.41792ZM6.24342 12.047V1.58339H2.24342V12.047H6.24342ZM6.24342 1.58339C6.24342 0.983338 6.00505 0.407861 5.58075 -0.0164427L2.75232 2.81198C2.42647 2.48614 2.24342 2.0442 2.24342 1.58339H6.24342ZM5.58075 -0.0164427C5.15645 -0.440744 4.58097 -0.679114 3.98092 -0.679114V3.32089C3.5201 3.32089 3.07816 3.13783 2.75232 2.81198L5.58075 -0.0164427ZM3.98092 -0.679114C3.38086 -0.679114 2.80539 -0.440742 2.38109 -0.0164427L5.20952 2.81198C4.88367 3.13783 4.44173 3.32089 3.98092 3.32089V-0.679114ZM2.38109 -0.0164427C1.95679 0.407857 1.71842 0.983332 1.71842 1.58339H5.71842C5.71842 2.0442 5.53536 2.48614 5.20952 2.81198L2.38109 -0.0164427ZM1.71842 1.58339V12.0323H5.71842V1.58339H1.71842ZM5.25574 10.753L2.47744 7.41433L-0.59721 9.97294L2.18109 13.3116L5.25574 10.753ZM2.47831 7.41537C2.2884 7.18685 2.05535 6.99797 1.79245 6.85952L-0.0714079 10.3987C-0.273288 10.2924 -0.452248 10.1474 -0.598072 9.97191L2.47831 7.41537ZM1.79245 6.85952C1.52956 6.72107 1.24196 6.63576 0.946088 6.60845L0.578507 10.5915C0.351306 10.5706 0.130466 10.505 -0.0714079 10.3987L1.79245 6.85952ZM0.946088 6.60845C0.650217 6.58115 0.351867 6.61239 0.0680723 6.70039L1.25273 10.5209C1.0348 10.5885 0.805704 10.6125 0.578507 10.5915L0.946088 6.60845ZM0.0680723 6.70039C-0.215734 6.78839 -0.479417 6.93143 -0.707927 7.12132L1.84861 10.1977C1.67314 10.3435 1.47066 10.4534 1.25273 10.5209L0.0680723 6.70039ZM-0.707927 7.12132C-0.936437 7.31122 -1.12532 7.54427 -1.26377 7.80718L2.27544 9.67104C2.16912 9.87292 2.02408 10.0519 1.84861 10.1977L-0.707927 7.12132ZM-1.26377 7.80718C-1.40222 8.07008 -1.48754 8.35768 -1.51484 8.65354L2.46823 9.02112C2.44727 9.24831 2.38176 9.46916 2.27544 9.67104L-1.26377 7.80718ZM-1.51484 8.65354C-1.54215 8.94941 -1.51091 9.24776 -1.42291 9.53156L2.39764 8.3469C2.46521 8.56482 2.4892 8.79393 2.46823 9.02112L-1.51484 8.65354ZM-1.42291 9.53156C-1.33491 9.81535 -1.19188 10.079 -1.00197 10.3076L2.07441 7.75102C2.22024 7.9265 2.33007 8.12898 2.39764 8.3469L-1.42291 9.53156ZM-1.00107 10.3086L2.24868 14.2136L5.32326 11.6549L2.07351 7.74994L-1.00107 10.3086ZM2.247 14.2116C2.45928 14.4673 2.7253 14.6732 3.02613 14.8145L4.7266 11.1939C4.95762 11.3024 5.16191 11.4605 5.32493 11.6569L2.247 14.2116ZM3.02613 14.8145C3.32695 14.9558 3.65523 15.029 3.98762 15.0291L3.98822 11.0291C4.24348 11.0291 4.49558 11.0854 4.7266 11.1939L3.02613 14.8145ZM3.98792 15.0291H3.98827V11.0291H3.98792V15.0291ZM3.98827 15.0291C4.66706 15.0291 5.29982 14.725 5.72445 14.2173L2.65598 11.6512C2.98052 11.2631 3.46557 11.0291 3.98827 11.0291V15.0291ZM5.73015 14.2104L8.96625 10.3055L5.88638 7.75312L2.65028 11.6581L5.73015 14.2104ZM8.96625 10.3055C9.34918 9.84338 9.53286 9.24812 9.4769 8.65063L5.49433 9.02364C5.45136 8.56491 5.59238 8.10788 5.88639 7.75312L8.96625 10.3055ZM9.4769 8.65063C9.42093 8.05313 9.12991 7.50233 8.66784 7.11941L6.1155 10.1993C5.76073 9.90527 5.53729 9.48238 5.49433 9.02364L9.4769 8.65063ZM8.66784 7.11941C8.20576 6.73647 7.6105 6.5528 7.01301 6.60876L7.38602 10.5913C6.92729 10.6343 6.47026 10.4933 6.1155 10.1993L8.66784 7.11941ZM7.01301 6.60876C6.41551 6.66472 5.86471 6.95575 5.48179 7.41782L8.56165 9.97016C8.26765 10.3249 7.84477 10.5484 7.38602 10.5913L7.01301 6.60876ZM15.0008 3.69142L11.7514 -0.213534L8.67671 2.34501L11.9261 6.24996L15.0008 3.69142ZM11.7514 -0.213511C11.5397 -0.467961 11.2748 -0.672864 10.9752 -0.813781L9.27236 2.80564C9.04251 2.6975 8.83917 2.54025 8.67669 2.34498L11.7514 -0.213511ZM10.9752 -0.813781C10.6757 -0.954699 10.3489 -1.0282 10.0179 -1.02911L10.007 2.97088C9.75298 2.97019 9.50221 2.91378 9.27236 2.80564L10.9752 -0.813781ZM10.0125 -1.02911C9.34188 -1.02911 8.69967 -0.730823 8.26744 -0.206627L11.3536 2.3381C11.0201 2.7426 10.527 2.97089 10.0125 2.97089V-1.02911ZM8.27065 -0.210515L5.0342 3.69444L8.11393 6.24694L11.3504 2.34199L8.27065 -0.210515ZM5.02452 3.70621C4.647 4.16884 4.46767 4.76195 4.52563 5.35626L8.50674 4.968C8.55125 5.4244 8.41353 5.87988 8.12362 6.23516L5.02452 3.70621ZM4.52563 5.35626C4.58359 5.95055 4.87413 6.49785 5.33393 6.87882L7.886 3.79874C8.23911 4.09131 8.46223 4.51161 8.50674 4.968L4.52563 5.35626ZM5.33393 6.87882C5.79373 7.2598 6.38548 7.44356 6.9802 7.39005L6.62174 3.40614C7.07845 3.36505 7.5329 3.50616 7.886 3.79874L5.33393 6.87882ZM6.9802 7.39005C7.57491 7.33654 8.12436 7.05009 8.50877 6.59316L5.44787 4.01811C5.74307 3.66721 6.16503 3.44723 6.62174 3.40614L6.9802 7.39005ZM8.51827 6.58178L11.2966 3.22913L8.21666 0.676844L5.43836 4.02949L8.51827 6.58178ZM7.75662 1.95299V12.4166H11.7566V1.95299H7.75662ZM7.75662 12.4166C7.75662 13.0167 7.995 13.5921 8.41929 14.0164L11.2477 11.188C11.5735 11.5138 11.7566 11.9558 11.7566 12.4166H7.75662ZM8.41929 14.0164C8.84357 14.4407 9.41904 14.6791 10.0191 14.6791V10.6791C10.48 10.6791 10.9219 10.8622 11.2477 11.188L8.41929 14.0164ZM10.0191 14.6791C10.6192 14.6791 11.1947 14.4407 11.6189 14.0164L8.79052 11.188C9.11635 10.8622 9.55828 10.6791 10.0191 10.6791V14.6791ZM11.6189 14.0164C12.0432 13.5921 12.2816 13.0166 12.2816 12.4166H8.28162C8.28162 11.9558 8.46468 11.5138 8.79052 11.188L11.6189 14.0164ZM12.2816 12.4166V1.96734H8.28162V12.4166H12.2816ZM8.74429 3.24664L11.5226 6.58529L14.5972 4.02668L11.8189 0.68803L8.74429 3.24664ZM11.5137 6.57459C11.7034 6.80577 11.9371 6.99703 12.2012 7.13728L14.0772 3.60449C14.2804 3.71239 14.4602 3.85953 14.6061 4.03738L11.5137 6.57459ZM12.2012 7.13728C12.4653 7.27754 12.7546 7.36399 13.0524 7.39165L13.4224 3.4088C13.6514 3.43008 13.874 3.49659 14.0772 3.60449L12.2012 7.13728ZM13.0524 7.39165C13.3502 7.41931 13.6504 7.38762 13.9359 7.29842L12.7427 3.48052C12.9623 3.4119 13.1933 3.38752 13.4224 3.4088L13.0524 7.39165ZM13.9359 7.29842C14.2213 7.20921 14.4862 7.06427 14.7152 6.87198L12.1431 3.80859C12.3193 3.66066 12.5231 3.54915 12.7427 3.48052L13.9359 7.29842ZM14.7068 6.87898C15.1684 6.49571 15.4589 5.9448 15.5143 5.3474L11.5314 4.97778C11.574 4.519 11.797 4.09593 12.1515 3.80159L14.7068 6.87898ZM15.5143 5.3474C15.5697 4.75 15.3856 4.15505 15.0025 3.69338L11.9245 6.24799C11.6302 5.89345 11.4888 5.43656 11.5314 4.97778L15.5143 5.3474Z" fill="#909DAD" mask="url(#path-1-inside-1_425_4354)"/>
</g>
<defs>
<clipPath id="clip0_425_4354">
<rect width="14" height="14" fill="white"/>
</clipPath>
</defs>
</svg>
