<svg width="29" height="28" viewBox="0 0 29 28" fill="none" xmlns="http://www.w3.org/2000/svg">
<g clip-path="url(#clip0_824_5619)">
<path fill-rule="evenodd" clip-rule="evenodd" d="M0.5 14C0.5 10.287 1.975 6.72601 4.6005 4.1005C7.22601 1.475 10.787 0 14.5 0C18.213 0 21.774 1.475 24.3995 4.1005C27.025 6.72601 28.5 10.287 28.5 14C28.5 17.713 27.025 21.274 24.3995 23.8995C21.774 26.525 18.213 28 14.5 28C10.787 28 7.22601 26.525 4.6005 23.8995C1.975 21.274 0.5 17.713 0.5 14ZM13.7011 19.992L21.7613 9.91573L20.3053 8.75093L13.4323 17.3395L8.564 13.2832L7.36933 14.7168L13.7011 19.992Z" fill="#2ABB56"/>
</g>
<defs>
<clipPath id="clip0_824_5619">
<rect width="28" height="28" fill="white" transform="translate(0.5)"/>
</clipPath>
</defs>
</svg>
