<svg width="23" height="16" viewBox="0 0 23 16" fill="none" xmlns="http://www.w3.org/2000/svg">
<path d="M0 3.5H9.75L10.5 5H0.75L0 3.5ZM1 6.5H10.75L11.5 8H1.75L1 6.5ZM17.25 14.5C18.08 14.5 18.75 13.83 18.75 13C18.75 12.17 18.08 11.5 17.25 11.5C16.42 11.5 15.75 12.17 15.75 13C15.75 13.83 16.42 14.5 17.25 14.5ZM18.75 5.5H16.25V8H20.71L18.75 5.5ZM7.25 14.5C8.08 14.5 8.75 13.83 8.75 13C8.75 12.17 8.08 11.5 7.25 11.5C6.42 11.5 5.75 12.17 5.75 13C5.75 13.83 6.42 14.5 7.25 14.5ZM19.25 4L22.25 8V13H20.25C20.25 14.66 18.91 16 17.25 16C15.59 16 14.25 14.66 14.25 13H10.25C10.25 14.66 8.9 16 7.25 16C5.59 16 4.25 14.66 4.25 13H2.25V9.5H4.25V11H5.01C5.56 10.39 6.36 10 7.25 10C8.14 10 8.94 10.39 9.49 11H14.25V2H2.25C2.25 0.89 3.14 0 4.25 0H16.25V4H19.25Z" fill="#2ABB56"/>
</svg>
