<svg width="32" height="32" viewBox="0 0 32 32" fill="none" xmlns="http://www.w3.org/2000/svg">
<rect width="32" height="32" rx="16" fill="url(#paint0_linear_1683_5325)"/>
<path d="M16 14.5C17.6569 14.5 19 13.1569 19 11.5C19 9.84315 17.6569 8.5 16 8.5C14.3431 8.5 13 9.84315 13 11.5C13 13.1569 14.3431 14.5 16 14.5Z" stroke="#FFFDEE" stroke-width="1.25"/>
<path d="M22 20.125C22 21.9888 22 23.5 16 23.5C10 23.5 10 21.9888 10 20.125C10 18.2613 12.6865 16.75 16 16.75C19.3135 16.75 22 18.2613 22 20.125Z" stroke="#FFFDEE" stroke-width="1.25"/>
<defs>
<linearGradient id="paint0_linear_1683_5325" x1="16" y1="0" x2="16" y2="32" gradientUnits="userSpaceOnUse">
<stop stop-color="#00588A"/>
<stop offset="1" stop-color="#1B72A4"/>
</linearGradient>
</defs>
</svg>
