<svg width="20" height="20" viewBox="0 0 20 20" fill="none" xmlns="http://www.w3.org/2000/svg">
<path d="M7.44075 16L3.14137 20L3 19.8919C3.49064 18.0707 3.98129 16.2412 4.48025 14.42C5.72765 9.88773 6.97506 5.36383 8.23078 0.831601C8.23078 0.814969 8.23078 0.798337 8.23078 0.790021C8.23078 0.565489 8.3472 0.357588 8.54678 0.24948C8.84616 0.199584 8.83784 0.540541 8.94595 0.731809C9.58628 1.91268 10.0686 3.1684 10.817 4.29106C11.5239 6.00416 12.3472 7.70894 13.237 9.33056C13.3451 9.49688 13.4116 9.68815 13.4116 9.88773C13.4116 10.2287 13.237 10.553 12.9459 10.736C11.0748 12.474 9.26196 14.2453 7.44075 16Z" fill="#F07A25"/>
<path d="M7.44075 16C9.27027 14.2453 11.0832 12.474 12.9376 10.7443C13.2287 10.5613 13.4033 10.237 13.4033 9.89605C13.4033 9.69647 13.3451 9.49688 13.2287 9.33888C12.3306 7.71726 11.5156 6.01247 10.8087 4.29938L12.0894 0C12.6216 1.02287 13.0624 1.86279 13.4865 2.71102C14.5593 4.84823 15.6071 7.00208 16.7214 9.12266C16.8711 9.33056 16.9459 9.58004 16.9459 9.83784C16.9459 10.262 16.7297 10.6611 16.3638 10.8857C13.3202 13.7048 10.3347 16.5904 7.33264 19.4511C7.14137 19.7006 6.88358 19.8919 6.5842 19.9917C6.96674 18.6861 7.2578 17.3472 7.44075 16Z" fill="#0C8D48"/>
</svg>
