<svg width="20" height="20" viewBox="0 0 20 20" fill="none" xmlns="http://www.w3.org/2000/svg">
<path d="M19.3501 8.01551C19.3497 7.86718 19.3055 7.72226 19.2228 7.59908C19.1402 7.4759 19.0229 7.37998 18.8857 7.32344C18.7486 7.26689 18.5978 7.25227 18.4523 7.2814C18.3069 7.31054 18.1733 7.38213 18.0686 7.48713C17.9638 7.59214 17.8925 7.72584 17.8637 7.87135C17.8348 8.01686 17.8498 8.16765 17.9066 8.30466C17.9635 8.44168 18.0596 8.55877 18.183 8.64115C18.3064 8.72353 18.4514 8.76749 18.5997 8.76749C18.6984 8.76771 18.7963 8.74839 18.8875 8.71066C18.9787 8.67293 19.0616 8.61752 19.1314 8.54762C19.2011 8.47773 19.2563 8.39474 19.2939 8.30341C19.3314 8.21209 19.3505 8.11425 19.3501 8.01551ZM15.8327 3.65011L14.6933 15.1121C14.9489 15.1431 15.3444 15.1121 15.4144 14.7085C15.5234 14.0932 16.4642 4.4965 16.4642 4.4965C16.4642 4.4965 16.6367 4.044 15.8245 3.65011H15.8327ZM18.4646 9.60249C18.4646 9.60249 17.8136 9.79292 16.9672 9.93779L16.4382 15.034C16.4382 15.034 16.3666 16.1197 15.569 16.1197H14.6022L14.5908 16.2303C14.5908 16.2303 14.4703 16.9774 13.8193 17.0751C13.1682 17.1728 0.565162 17.0751 0.565162 17.0751C0.565162 17.0751 0.032915 16.9774 0.0101277 16.4794C-0.0126596 15.9813 0.0101277 5.71236 0.0101277 5.71236C0.071824 5.51025 0.191591 5.33073 0.354526 5.19616C0.517461 5.06159 0.716371 4.97789 0.926504 4.9555C1.21623 4.91806 3.40056 4.55835 5.97227 4.13027L6.83168 2.5026C6.91398 2.35435 7.03346 2.23008 7.17837 2.14202C7.32327 2.05396 7.48861 2.00515 7.65811 2.00039C7.8276 1.99562 7.99542 2.03507 8.14504 2.11486C8.29467 2.19464 8.42094 2.312 8.51143 2.4554C8.35211 2.28248 8.13373 2.17561 7.89943 2.15591H7.81154C7.63759 2.1555 7.46684 2.20257 7.31769 2.29207C7.16853 2.38156 7.04664 2.51007 6.96515 2.66374L0.633524 14.6889C0.525624 14.9119 0.508549 15.1681 0.585902 15.4034C0.663254 15.6388 0.828985 15.8349 1.04814 15.9504C1.26729 16.0659 1.52274 16.0917 1.76059 16.0225C1.99844 15.9532 2.2001 15.7943 2.32304 15.5793L6.88051 6.92335V14.0721C6.88137 14.322 6.98116 14.5615 7.15806 14.7381C7.33497 14.9147 7.57459 15.0141 7.82456 15.0145C8.41215 15.0145 8.80116 14.2804 8.83371 14.2137L11.3403 9.37787V13.561C11.3403 13.8109 11.4396 14.0506 11.6163 14.2274C11.7931 14.4041 12.0328 14.5034 12.2827 14.5034C12.5327 14.5034 12.7724 14.4041 12.9491 14.2274C13.1259 14.0506 13.2252 13.8109 13.2252 13.561V5.50239C13.2262 5.28286 13.1504 5.06988 13.011 4.90033C12.8715 4.73077 12.6772 4.61533 12.4616 4.57399C12.2459 4.53264 12.0227 4.568 11.8304 4.67394C11.6381 4.77988 11.4889 4.94973 11.4087 5.15407L11.394 5.17686L8.93463 9.92476L8.33076 11.1943L8.76698 9.61714V3.66313C12.0109 3.12112 15.0254 2.61329 15.0254 2.61329C15.0254 2.61329 15.8229 2.41959 15.8717 3.26435L15.8359 3.62081C16.1094 3.56221 17.3985 3.33922 17.4864 4.43464L17.3057 7.03891C17.3057 7.03891 17.5271 7.20168 18.489 6.82406C18.489 6.82406 19.8416 6.28693 19.9865 7.62813C19.9865 7.62813 20.2485 9.00188 18.4646 9.61063V9.60249ZM19.018 8.02039C19.018 8.10313 18.9935 8.184 18.9475 8.2528C18.9016 8.32159 18.8362 8.3752 18.7598 8.40686C18.6834 8.43852 18.5993 8.44681 18.5181 8.43067C18.437 8.41453 18.3624 8.37469 18.3039 8.31618C18.2454 8.25768 18.2056 8.18315 18.1894 8.102C18.1733 8.02086 18.1816 7.93675 18.2132 7.86031C18.2449 7.78388 18.2985 7.71855 18.3673 7.67258C18.4361 7.62662 18.517 7.60208 18.5997 7.60208C18.7098 7.60208 18.8155 7.64548 18.8938 7.72287C18.9721 7.80027 19.0167 7.90542 19.018 8.01551V8.02039Z" fill="#2172B9"/>
</svg>
