<svg width="20" height="20" viewBox="0 0 20 20" fill="none" xmlns="http://www.w3.org/2000/svg">
<path d="M17.7841 11.8381C18.7993 7.53903 16.1371 3.23102 11.8381 2.21588C7.53903 1.20074 3.23102 3.86287 2.21588 8.16192C1.20074 12.461 3.86287 16.769 8.16192 17.7841C12.461 18.7993 16.769 16.1371 17.7841 11.8381Z" fill="#5F259F"/>
<path d="M13.63 7.91256C13.63 7.59982 13.362 7.33155 13.0493 7.33155H11.9767L9.51941 4.51654C9.29586 4.24852 8.93843 4.15908 8.58101 4.24852L7.73198 4.51654C7.59786 4.56122 7.55315 4.74009 7.64255 4.82924L10.3237 7.37627H6.25757C6.12342 7.37627 6.03402 7.46567 6.03402 7.59982V8.04643C6.03402 8.35941 6.30229 8.6274 6.615 8.6274H7.24044V10.7723C7.24044 12.3808 8.08947 13.319 9.51944 13.319C9.96605 13.319 10.3238 13.2743 10.7703 13.0957V14.5254C10.7703 14.9276 11.0833 15.2406 11.4855 15.2406H12.1109C12.2451 15.2406 12.3789 15.1065 12.3789 14.9723V8.58269H13.4068C13.5409 8.58269 13.6301 8.49328 13.6301 8.35941V7.91256H13.63ZM10.7703 11.7551C10.5023 11.8892 10.1449 11.934 9.8769 11.934C9.16174 11.934 8.80431 11.5765 8.80431 10.7723V8.62737H10.7703V11.7551Z" fill="white"/>
</svg>
