<svg width="20" height="20" viewBox="0 0 20 20" fill="none" xmlns="http://www.w3.org/2000/svg">
<path d="M11.7318 2.02598C11.6266 2.0491 11.5192 2.06174 11.4113 2.06372C10.5687 2.16929 9.74192 2.37202 8.94843 2.66765L8.64089 2.79095C8.1974 2.96622 7.7658 3.16877 7.34872 3.39739C7.27728 3.44191 7.19988 3.47663 7.11871 3.50056C7.0541 3.51566 7.00241 3.54585 7.00241 3.56347C7.00241 3.58108 6.96623 3.60625 6.92747 3.62386C6.85289 3.65312 6.78182 3.69025 6.71555 3.73458C6.64097 3.78225 6.56328 3.82512 6.48296 3.86291C6.39532 3.90267 6.31289 3.95251 6.23744 4.01138C6.18595 4.05488 6.12855 4.09129 6.06688 4.11958C5.39631 4.52173 4.75789 4.9726 4.15704 5.46835C3.82133 5.76186 3.51182 6.08258 3.23184 6.42708C3.20865 6.47475 3.17717 6.51817 3.1388 6.55541C2.89836 6.86622 2.68239 7.19428 2.49271 7.53679C2.4462 7.64247 2.34799 7.8312 2.28597 7.95953C2.06846 8.40652 1.97236 8.90037 2.00686 9.39385C2.0005 9.61486 2.04342 9.83457 2.13265 10.0379C2.22188 10.2412 2.3553 10.4232 2.52373 10.5715C2.71487 10.7592 2.94293 10.9074 3.19426 11.0073C3.4456 11.1072 3.71504 11.1567 3.98647 11.1528C4.40155 11.1787 4.81805 11.1327 5.21662 11.0169C5.35876 10.9766 5.55259 10.9313 5.64563 10.9037C5.72876 10.8863 5.80946 10.8593 5.88597 10.8231C5.98676 10.7728 6.55274 10.5237 6.57858 10.5237C7.22273 10.1951 7.84428 9.82607 8.43931 9.41902C9.0027 9.05163 9.4989 8.73205 9.54283 8.70941C9.58677 8.68676 9.85037 8.53075 10.1347 8.36467C10.4189 8.19859 10.7704 8.00483 10.91 7.93437L11.37 7.69783C11.4811 7.64751 11.6853 7.5544 11.83 7.50156C11.9747 7.44871 12.1556 7.37322 12.2254 7.34303C12.2952 7.31283 12.4063 7.26754 12.4657 7.24237C12.7691 7.14917 13.0835 7.0942 13.4013 7.07881C13.7613 7.03234 14.1267 7.11041 14.4337 7.29942C14.7407 7.48843 14.9698 7.77637 15.0811 8.11303C15.1646 8.38268 15.1927 8.66571 15.1638 8.94594C15.193 9.40883 15.1189 9.87239 14.9467 10.3048L14.8356 10.5564C14.5167 11.2365 14.1177 11.8783 13.6468 12.4688C12.975 13.2917 12.2238 14.0501 11.4036 14.7336L10.8118 15.2117C10.6257 15.3601 10.4112 15.5086 10.176 15.6646C10.0778 15.7225 9.91757 15.8256 9.82453 15.8936C9.37407 16.1664 8.90524 16.4094 8.42122 16.6208L8.062 16.7743C7.99032 16.8116 7.91246 16.8363 7.83199 16.8473C7.7562 16.8545 7.68158 16.8705 7.60974 16.8951C7.54652 16.9196 7.47811 16.9288 7.41043 16.9218C7.34275 16.9148 7.27785 16.8919 7.22134 16.8549C7.16483 16.818 7.11842 16.7682 7.08613 16.7099C7.05383 16.6515 7.03663 16.5864 7.03601 16.5202C7.03601 16.1704 7.20658 15.9464 8.28425 14.9047C9.4498 13.7799 9.57643 13.6113 9.57643 13.186C9.57643 12.7607 9.36193 12.4462 8.87865 12.2071C8.67683 12.1023 8.44659 12.061 8.21964 12.0889C7.87083 12.0702 7.52474 12.1582 7.22984 12.3405C7.16006 12.3833 7.04893 12.4386 6.98949 12.4688C6.94289 12.4903 6.89872 12.5165 6.85769 12.5468C6.85769 12.5468 6.7569 12.6223 6.65869 12.6953C6.33746 12.9546 6.04551 13.2465 5.78777 13.566C5.5821 13.8448 5.40139 14.1403 5.24764 14.4492C4.99062 14.9634 4.83961 15.5216 4.80313 16.0924C4.80313 17.0108 5.29415 17.7456 6.05395 17.9545C6.54473 18.0152 7.04143 18.0152 7.53221 17.9545C7.9378 17.8661 8.33604 17.7484 8.72359 17.6022C8.75413 17.5794 8.79111 17.5662 8.82955 17.5644C9.47443 17.3034 10.0974 16.9938 10.6929 16.6384C10.7937 16.573 10.9074 16.5 10.9513 16.4749C10.9952 16.4497 11.2097 16.3314 11.4113 16.2031C11.6129 16.0748 11.8067 15.9515 11.8197 15.9515C11.9247 15.8678 12.0342 15.7897 12.1479 15.7174L12.5872 15.423C12.6622 15.3702 12.8663 15.2167 13.0472 15.0758C14.0522 14.3183 14.9699 13.4568 15.784 12.5066C15.8797 12.3933 15.9675 12.2851 15.9805 12.2726C16.1737 12.0301 16.354 11.7782 16.5206 11.5177C16.6332 11.3494 16.7367 11.1755 16.8307 10.9968C16.9134 10.8433 17.0297 10.6344 17.0891 10.5262C17.1486 10.418 17.2675 10.1437 17.3631 9.90719C17.4587 9.67065 17.5492 9.44166 17.5647 9.40392C17.7454 8.86845 17.8777 8.31863 17.9601 7.76074C18.0462 7.01023 17.9928 6.25076 17.8024 5.51867C17.7346 5.30553 17.6481 5.09843 17.544 4.89965C17.1985 4.16733 16.6644 3.53451 15.9934 3.06271C15.903 3.00646 15.8166 2.94424 15.7349 2.8765C15.2911 2.60911 14.8132 2.39931 14.3136 2.25245C14.0418 2.17629 13.7656 2.1158 13.4866 2.07127C13.2049 2.02849 12.6957 2.00081 12.2952 2.00081H12.091C11.9707 1.9972 11.8503 2.00563 11.7318 2.02598Z" fill="#ED1D24"/>
</svg>
