<svg width="20" height="20" viewBox="0 0 20 20" fill="none" xmlns="http://www.w3.org/2000/svg">
<path fill-rule="evenodd" clip-rule="evenodd" d="M3 2.6375C3 2.28542 3.28542 2 3.6375 2H16.8125C17.1646 2 17.45 2.28542 17.45 2.6375V15.0688C17.45 15.3102 17.3136 15.531 17.0976 15.6389L10.5101 18.9327C10.3306 19.0224 10.1194 19.0224 9.9399 18.9327L3.3524 15.6389C3.13643 15.531 3 15.3102 3 15.0688V2.6375ZM4.275 3.275V14.6748L10.225 17.6498L16.175 14.6748V3.275H4.275ZM5.55 4.55H14.2625C14.6146 4.55 14.9 4.83542 14.9 5.1875V8.375H13.625V5.825H5.55V4.55ZM5.55 7.70414C5.55 7.35206 5.83542 7.06664 6.1875 7.06664H11.7125V8.34164H6.825V13.3998L10.225 15.0998L13.625 13.3998V9.65H14.9V13.7938C14.9 14.0352 14.7636 14.256 14.5476 14.3639L10.5101 16.3827C10.3306 16.4724 10.1194 16.4724 9.9399 16.3827L5.9024 14.3639C5.68643 14.256 5.55 14.0352 5.55 13.7938V7.70414ZM8.1 12.5188V9.65H9.375V12.1248L10.225 12.5498L11.4274 11.9486L11.9976 13.0889L10.5101 13.8327C10.3306 13.9224 10.1194 13.9224 9.9399 13.8327L8.4524 13.0889C8.23643 12.981 8.1 12.7602 8.1 12.5188Z" fill="#020000"/>
</svg>
