<svg width="20" height="20" viewBox="0 0 20 20" fill="none" xmlns="http://www.w3.org/2000/svg">
<path d="M13.6372 8.2104L6.3676 10.1596V8.34099L13.6372 6.39178V8.2104Z" fill="#F37160"/>
<path d="M13.6372 11.6638L6.3676 13.6131V11.7944L13.6372 9.84523V11.6638Z" fill="#007B78"/>
<path d="M10 18C8.41775 18 6.87103 17.5308 5.55544 16.6518C4.23985 15.7727 3.21447 14.5233 2.60897 13.0615C2.00347 11.5997 1.84504 9.99113 2.15372 8.43928C2.4624 6.88743 3.22433 5.46197 4.34315 4.34315C5.46197 3.22433 6.88743 2.4624 8.43928 2.15372C9.99113 1.84504 11.5997 2.00347 13.0615 2.60897C14.5233 3.21447 15.7727 4.23985 16.6518 5.55544C17.5308 6.87103 18 8.41775 18 10C17.9974 12.1209 17.1538 14.1543 15.654 15.654C14.1543 17.1538 12.1209 17.9974 10 18ZM10 3.63966C8.74088 3.63967 7.51005 4.0131 6.4632 4.71273C5.41635 5.41236 4.60051 6.40675 4.11889 7.57011C3.63726 8.73348 3.5115 10.0135 3.75749 11.2484C4.00348 12.4833 4.61019 13.6174 5.50086 14.5074C6.39153 15.3974 7.52614 16.0032 8.76119 16.2483C9.99623 16.4934 11.2762 16.3666 12.4392 15.8841C13.6022 15.4016 14.596 14.585 15.2948 13.5376C15.9936 12.4902 16.3661 11.2591 16.3652 10C16.3626 8.31309 15.691 6.69606 14.4977 5.50368C13.3045 4.31131 11.6869 3.64094 10 3.63966Z" fill="#00B7CE"/>
</svg>
