<svg width="505" height="5" viewBox="0 0 505 5" fill="none" xmlns="http://www.w3.org/2000/svg">
<path d="M15.7812 2.85705C10.5208 -0.000225067 5.26042 -0.000225067 0 2.85705V0H505V2.85705C499.74 5.71432 494.479 5.71432 489.219 2.85705C483.958 -0.000225067 478.698 -0.000225067 473.437 2.85705C468.177 5.71432 462.917 5.71432 457.656 2.85705C452.396 -0.000225067 447.135 -0.000225067 441.875 2.85705C436.615 5.71432 431.354 5.71432 426.094 2.85705C420.833 -0.000225067 415.573 -0.000225067 410.312 2.85705C405.052 5.71432 399.792 5.71432 394.531 2.85705C389.271 -0.000225067 384.01 -0.000225067 378.75 2.85705C373.49 5.71432 368.229 5.71432 362.969 2.85705C357.708 -0.000225067 352.448 -0.000225067 347.187 2.85705C341.927 5.71432 336.667 5.71432 331.406 2.85705C326.146 -0.000225067 320.885 -0.000225067 315.625 2.85705C310.365 5.71432 305.104 5.71432 299.844 2.85705C294.583 -0.000225067 289.323 -0.000225067 284.062 2.85705C278.802 5.71432 273.542 5.71432 268.281 2.85705C263.021 -0.000225067 257.76 -0.000225067 252.5 2.85705C247.24 5.71432 241.979 5.71432 236.719 2.85705C231.458 -0.000225067 226.198 -0.000225067 220.937 2.85705C215.677 5.71432 210.417 5.71432 205.156 2.85705C199.896 -0.000225067 194.635 -0.000225067 189.375 2.85705C184.115 5.71432 178.854 5.71432 173.594 2.85705C168.333 -0.000225067 163.073 -0.000225067 157.812 2.85705C152.552 5.71432 147.292 5.71432 142.031 2.85705C136.771 -0.000225067 131.51 -0.000225067 126.25 2.85705C120.99 5.71432 115.729 5.71432 110.469 2.85705C105.208 -0.000225067 99.9479 -0.000225067 94.6875 2.85705C89.4271 5.71432 84.1667 5.71432 78.9062 2.85705C73.6458 -0.000225067 68.3854 -0.000225067 63.125 2.85705C57.8646 5.71432 52.6042 5.71432 47.3437 2.85705C42.0833 -0.000225067 36.8229 -0.000225067 31.5625 2.85705C26.3021 5.71432 21.0417 5.71432 15.7812 2.85705Z" fill="white"/>
</svg>
