<svg width="44" height="44" viewBox="0 0 44 44" fill="none" xmlns="http://www.w3.org/2000/svg">
<rect width="44" height="44" rx="22" fill="#00588A"/>
<path fill-rule="evenodd" clip-rule="evenodd" d="M17 13C17.5523 13 18 13.4477 18 14V17C18 17.5523 17.5523 18 17 18C16.4477 18 16 17.5523 16 17V14C16 13.4477 16.4477 13 17 13ZM25 16H19V17C19 18.1046 18.1046 19 17 19C15.8954 19 15 18.1046 15 17V16H14.5C13.6716 16 13 16.6716 13 17.5V18.5V20V29.5C13 30.3284 13.6716 31 14.5 31H29.5C30.3284 31 31 30.3284 31 29.5V20V18.5V17.5C31 16.6716 30.3284 16 29.5 16H29V17C29 18.1046 28.1046 19 27 19C25.8954 19 25 18.1046 25 17V16ZM15 21V29H29V21H15ZM28 14C28 13.4477 27.5523 13 27 13C26.4477 13 26 13.4477 26 14V17C26 17.5523 26.4477 18 27 18C27.5523 18 28 17.5523 28 17V14Z" fill="white"/>
</svg>
